<svg width="32" height="32" viewBox="0 0 32 32" fill="none" xmlns="http://www.w3.org/2000/svg">
<path d="M29.02 11.754L8.416 9.47401L7.16 4.71501C7.11634 4.55539 7.02165 4.41445 6.89038 4.3137C6.75911 4.21294 6.59847 4.15791 6.433 4.15701H3.34C3.22821 4.00653 3.08309 3.88398 2.91602 3.79896C2.74894 3.71395 2.56445 3.66879 2.377 3.66701C2.04773 3.66701 1.73195 3.79781 1.49913 4.03063C1.2663 4.26346 1.1355 4.57924 1.1355 4.90851C1.1355 5.23777 1.2663 5.55355 1.49913 5.78638C1.73195 6.01921 2.04773 6.15001 2.377 6.15001C2.777 6.15001 3.115 5.95001 3.342 5.65801H5.854L11.084 25.458C10.5135 26.0653 10.1953 26.8668 10.194 27.7C10.1936 28.1325 10.2785 28.5608 10.4438 28.9604C10.6091 29.3601 10.8515 29.7232 11.1573 30.029C11.463 30.3349 11.8261 30.5775 12.2257 30.7429C12.6253 30.9083 13.0535 30.9933 13.486 30.993C14.3598 30.9933 15.198 30.6465 15.8162 30.029C16.4345 29.4115 16.7822 28.5738 16.783 27.7C16.7813 27.4495 16.7501 27.2002 16.69 26.957H22.223C22.1638 27.2003 22.1329 27.4496 22.131 27.7C22.131 29.52 23.607 30.993 25.427 30.993C27.247 30.993 28.72 29.52 28.72 27.7C28.7203 26.826 28.3734 25.9877 27.7557 25.3694C27.138 24.7512 26.3 24.4035 25.426 24.403C24.476 24.403 23.626 24.813 23.024 25.456H15.888C15.5818 25.1245 15.2103 24.8598 14.797 24.6786C14.3836 24.4974 13.9373 24.4036 13.486 24.403C13.106 24.403 12.748 24.481 12.409 24.599L12.227 23.913H26.81C27.3704 23.9016 27.9108 23.7021 28.3442 23.3466C28.7776 22.9912 29.079 22.5004 29.2 21.953L30.775 14.155C30.8016 14.0186 30.815 13.88 30.815 13.741C30.8158 13.246 30.6325 12.7684 30.3007 12.401C29.969 12.0336 29.5125 11.8036 29.02 11.754ZM25.428 27.994C25.3497 27.9937 25.2746 27.9626 25.219 27.9074C25.1634 27.8522 25.1318 27.7773 25.131 27.699C25.134 27.533 25.266 27.401 25.429 27.401C25.592 27.401 25.724 27.533 25.726 27.698C25.7249 27.7762 25.6932 27.8508 25.6377 27.9058C25.5821 27.9608 25.5072 27.9918 25.429 27.992L25.428 27.994ZM27.208 20.499L28.156 19.549L27.838 21.129L27.208 20.499ZM12.755 11.462L13.79 12.5L12.5 13.79L11.207 12.5L12.294 11.412L12.755 11.462ZM17.253 11.96L17.791 12.5L16.501 13.79L15.208 12.5L15.896 11.81L17.253 11.96ZM9.63 14.076L10.5 13.208L11.79 14.5L10.5 15.79L9.935 15.227L9.631 14.075L9.63 14.076ZM9.335 12.956L9.007 11.716L9.792 12.501L9.335 12.956ZM21.79 16.5L20.5 17.79L19.207 16.5L20.499 15.207L21.79 16.5ZM21.207 14.5L22.499 13.208L23.789 14.5L22.499 15.792L21.207 14.5ZM18.5 15.79L17.207 14.5L18.499 13.207L19.789 14.499L18.5 15.79ZM17.79 16.5L16.5 17.79L15.208 16.5L16.5 15.207L17.79 16.5ZM14.5 15.79L13.207 14.5L14.499 13.207L15.789 14.499L14.5 15.79ZM13.79 16.5L12.5 17.79L11.207 16.5L12.499 15.207L13.79 16.5ZM10.5 17.207L11.79 18.499L11.006 19.282L10.466 17.238L10.499 17.205L10.5 17.207ZM11.302 20.404L12.499 19.207L13.789 20.499L12.499 21.789L11.369 20.659L11.302 20.404ZM13.208 18.499L14.498 17.206L15.791 18.498L14.501 19.788L13.209 18.498L13.208 18.499ZM16.5 19.206L17.792 20.498L16.5 21.788L15.208 20.498L16.5 19.206ZM17.208 18.498L18.5 17.205L19.79 18.497L18.5 19.787L17.208 18.498ZM20.498 19.205L21.791 20.497L20.501 21.787L19.209 20.495L20.498 19.205ZM21.208 18.497L22.498 17.204L23.791 18.496L22.501 19.786L21.208 18.497ZM23.208 16.497L24.498 15.204L25.791 16.496L24.501 17.786L23.208 16.497ZM25.208 14.497L26.498 13.204L27.79 14.5L26.5 15.792L25.207 14.499L25.208 14.497ZM24.498 13.789L23.343 12.633L25.425 12.863L24.498 13.789ZM21.792 12.5L20.502 13.792L19.209 12.5L19.499 12.21L21.752 12.46L21.792 12.5ZM14.502 11.79L14.35 11.64L14.623 11.67L14.503 11.79H14.502ZM10.502 11.792L9.852 11.142L11.022 11.272L10.502 11.792ZM14.502 21.207L15.707 22.412H13.297L14.502 21.207ZM18.502 21.207L19.707 22.413H17.295L18.502 21.207ZM22.502 21.207L23.709 22.414H21.295L22.502 21.207ZM23.209 20.499L24.501 19.206L25.791 20.498L24.501 21.788L23.209 20.499ZM25.209 18.499L26.501 17.207L27.791 18.497L26.501 19.79L25.208 18.5L25.209 18.499ZM28.501 17.789L27.209 16.499L28.499 15.207L28.944 15.651L28.514 17.775L28.5 17.79L28.501 17.789ZM29.001 13.289L28.501 13.789L27.841 13.132L28.858 13.244C28.912 13.252 28.958 13.27 29.002 13.288L29.001 13.289ZM13.488 27.993C13.4123 27.9886 13.3412 27.9555 13.2892 27.9003C13.2372 27.8452 13.2082 27.7723 13.2082 27.6965C13.2082 27.6207 13.2372 27.5478 13.2892 27.4927C13.3412 27.4376 13.4123 27.4044 13.488 27.4C13.5634 27.4044 13.6343 27.4374 13.6861 27.4924C13.7379 27.5473 13.7668 27.62 13.7668 27.6955C13.7668 27.771 13.7379 27.8437 13.6861 27.8986C13.6343 27.9536 13.5634 27.9866 13.488 27.991V27.993ZM26.811 22.413H25.294L26.501 21.206L27.431 22.136C27.244 22.306 27.008 22.426 26.811 22.413Z" fill="#CBCBCB"/>
</svg>
